<svg width="74" height="26" viewBox="0 0 74 26" fill="none" xmlns="http://www.w3.org/2000/svg">
    <g clip-path="url(#clip0_45_35)">
        <path
            d="M19.5002 7.0001C19.4002 7.1001 19.4002 7.1001 19.4002 7.2001C18.5002 9.3001 17.5002 11.3001 16.6002 13.4001C16.4002 13.9001 16.1002 14.5001 15.8002 15.0001C15.7002 15.1001 15.6002 15.2001 15.5002 15.2001C13.8002 15.2001 12.1002 15.2001 10.4002 15.2001C10.3002 15.2001 10.3002 15.2001 10.2002 15.2001C10.4002 14.7001 10.6002 14.2001 10.9002 13.7001C12.8002 9.3001 14.8002 5.0001 16.8002 0.600098C17.5002 2.7001 18.5002 4.9001 19.5002 7.0001Z"
            fill="#050505" stroke="#050505" stroke-width="0.066976" stroke-miterlimit="10" />
        <path
            d="M28.9 15.2001C28.7 15.2001 28.6 15.2001 28.5 15.2001C26.9 15.2001 25.3 15.2001 23.7 15.2001C23.4 15.2001 23.2 15.1001 23.1 14.8001C22 12.3001 20.8 9.7001 19.7 7.2001C19.7 7.1001 19.6 7.0001 19.5 6.9001C20.5 4.8001 21.4 2.7001 22.4 0.600098C22.9 1.8001 23.7 3.5001 24.7 5.8001C24.8 6.0001 24.8 6.1001 24.9 6.2001C26.2 9.0001 27.5 11.9001 28.8 14.7001C28.8 15.0001 28.8 15.1001 28.9 15.2001Z"
            fill="#050505" stroke="#050505" stroke-width="0.066976" stroke-miterlimit="10" />
        <path
            d="M22.3 0.600098C21.3 2.7001 20.4 4.8001 19.4 6.9001C18.4 4.8001 17.5 2.7001 16.5 0.600098C18.5 0.600098 20.4 0.600098 22.3 0.600098Z"
            fill="#050505" stroke="#050505" stroke-width="0.066976" stroke-miterlimit="10" />
        <path
            d="M38.7006 9.2L42.6006 10.4C42.3006 11.5 41.9006 12.4 41.4006 13.1C40.8006 13.8 40.1006 14.4 39.3006 14.8C38.5006 15.2 37.4006 15.4 36.1006 15.4C34.5006 15.4 33.3006 15.2 32.3006 14.7C31.3006 14.2 30.5006 13.4 29.7006 12.3C29.0006 11.2 28.6006 9.7 28.6006 7.9C28.6006 5.5 29.2006 3.7 30.5006 2.4C31.8006 1.1 33.6006 0.5 35.9006 0.5C37.7006 0.5 39.1006 0.9 40.2006 1.6C41.2006 2.3 42.0006 3.5 42.5006 5L38.6006 5.9C38.5006 5.5 38.3006 5.1 38.2006 4.9C38.0006 4.6 37.6006 4.3 37.3006 4.1C36.9006 3.9 36.5006 3.8 36.1006 3.8C35.1006 3.8 34.3006 4.2 33.8006 5C33.4006 5.6 33.2006 6.5 33.2006 7.8C33.2006 9.4 33.4006 10.5 33.9006 11.1C34.4006 11.7 35.1006 12 35.9006 12C36.8006 12 37.4006 11.8 37.8006 11.3C38.2006 10.8 38.5006 10.1 38.7006 9.2Z"
            fill="black" stroke="black" stroke-width="0.3146" stroke-miterlimit="10" />
        <path
            d="M44.001 10.4001L48.201 10.1001C48.301 10.8001 48.501 11.3001 48.801 11.7001C49.301 12.3001 49.901 12.6001 50.801 12.6001C51.401 12.6001 51.901 12.5001 52.301 12.2001C52.601 11.9001 52.801 11.6001 52.801 11.2001C52.801 10.8001 52.601 10.5001 52.301 10.2001C52.001 9.9001 51.201 9.6001 50.001 9.4001C48.001 9.0001 46.701 8.4001 45.801 7.7001C45.001 7.0001 44.501 6.0001 44.501 4.9001C44.501 4.2001 44.701 3.5001 45.101 2.8001C45.501 2.1001 46.201 1.6001 47.001 1.2001C47.901 0.800098 49.001 0.600098 50.501 0.600098C52.301 0.600098 53.701 0.900098 54.701 1.6001C55.701 2.3001 56.201 3.4001 56.401 4.9001L52.401 5.0001C52.301 4.4001 52.101 3.9001 51.701 3.6001C51.301 3.3001 50.901 3.2001 50.201 3.2001C49.701 3.2001 49.301 3.3001 49.001 3.5001C48.701 3.7001 48.601 4.0001 48.601 4.3001C48.601 4.5001 48.701 4.7001 48.901 4.9001C49.101 5.1001 49.601 5.3001 50.401 5.4001C52.301 5.8001 53.701 6.2001 54.601 6.7001C55.401 7.1001 56.101 7.7001 56.401 8.3001C56.801 8.9001 57.001 9.6001 57.001 10.4001C57.001 11.3001 56.701 12.2001 56.201 13.0001C55.701 13.8001 55.001 14.4001 54.101 14.8001C53.201 15.2001 52.001 15.4001 50.601 15.4001C48.201 15.4001 46.501 14.9001 45.501 14.0001C44.701 13.0001 44.101 11.8001 44.001 10.4001Z"
            fill="black" stroke="black" stroke-width="0.3146" stroke-miterlimit="10" />
        <path
            d="M61.2006 15.4C62.6365 15.4 63.8006 14.2359 63.8006 12.8C63.8006 11.364 62.6365 10.2 61.2006 10.2C59.7646 10.2 58.6006 11.364 58.6006 12.8C58.6006 14.2359 59.7646 15.4 61.2006 15.4Z"
            fill="#00EF5D" />
        <path
            d="M11.2211 19.3141V24.032H10.6052V19.3141H11.2211ZM14.0782 20.255C14.5295 20.255 14.895 20.3926 15.1748 20.6679C15.4545 20.9386 15.5944 21.3312 15.5944 21.8457V24.032H14.9852V21.9337C14.9852 21.5636 14.8927 21.2816 14.7077 21.0876C14.5227 20.889 14.27 20.7897 13.9496 20.7897C13.6247 20.7897 13.3652 20.8913 13.1712 21.0943C12.9817 21.2974 12.8869 21.593 12.8869 21.981V24.032H12.2709V20.3227H12.8869V20.8506C13.0087 20.6611 13.1734 20.5145 13.381 20.4107C13.5931 20.3069 13.8255 20.255 14.0782 20.255ZM17.9137 24.0929C17.6295 24.0929 17.3745 24.0455 17.1489 23.9508C16.9232 23.8515 16.745 23.7161 16.6141 23.5446C16.4833 23.3686 16.4111 23.1678 16.3975 22.9422H17.0338C17.0518 23.1272 17.1376 23.2784 17.291 23.3957C17.449 23.513 17.6543 23.5717 17.907 23.5717C18.1416 23.5717 18.3266 23.5198 18.462 23.416C18.5974 23.3122 18.6651 23.1814 18.6651 23.0234C18.6651 22.861 18.5929 22.7414 18.4485 22.6647C18.3041 22.5835 18.0807 22.5045 17.7784 22.4278C17.5031 22.3556 17.2775 22.2834 17.1015 22.2112C16.93 22.1345 16.7811 22.0239 16.6547 21.8795C16.5329 21.7306 16.472 21.5366 16.472 21.2974C16.472 21.1079 16.5284 20.9341 16.6412 20.7762C16.754 20.6183 16.9142 20.4942 17.1218 20.4039C17.3294 20.3091 17.5663 20.2618 17.8325 20.2618C18.2432 20.2618 18.5748 20.3655 18.8275 20.5731C19.0802 20.7807 19.2156 21.065 19.2337 21.426H18.6177C18.6042 21.232 18.5252 21.0763 18.3808 20.9589C18.2409 20.8416 18.0514 20.783 17.8122 20.783C17.5911 20.783 17.4151 20.8303 17.2842 20.9251C17.1534 21.0199 17.0879 21.144 17.0879 21.2974C17.0879 21.4192 17.1263 21.5208 17.203 21.602C17.2842 21.6787 17.3835 21.7419 17.5008 21.7915C17.6227 21.8366 17.7896 21.8885 18.0017 21.9472C18.268 22.0194 18.4846 22.0916 18.6515 22.1638C18.8185 22.2315 18.9606 22.3353 19.078 22.4752C19.1998 22.615 19.263 22.7978 19.2675 23.0234C19.2675 23.2265 19.2111 23.4093 19.0983 23.5717C18.9855 23.7342 18.8253 23.8628 18.6177 23.9575C18.4146 24.0478 18.18 24.0929 17.9137 24.0929ZM20.4552 19.7203C20.3378 19.7203 20.2386 19.6796 20.1573 19.5984C20.0761 19.5172 20.0355 19.4179 20.0355 19.3006C20.0355 19.1833 20.0761 19.084 20.1573 19.0028C20.2386 18.9215 20.3378 18.8809 20.4552 18.8809C20.568 18.8809 20.6627 18.9215 20.7395 19.0028C20.8207 19.084 20.8613 19.1833 20.8613 19.3006C20.8613 19.4179 20.8207 19.5172 20.7395 19.5984C20.6627 19.6796 20.568 19.7203 20.4552 19.7203ZM20.753 20.3227V24.032H20.137V20.3227H20.753ZM23.3325 20.2618C23.6529 20.2618 23.9327 20.3317 24.1719 20.4716C24.4155 20.6115 24.596 20.7875 24.7134 20.9996V20.3227H25.3361V24.1132C25.3361 24.4516 25.2639 24.7517 25.1195 25.0135C24.9751 25.2797 24.7675 25.4873 24.4968 25.6362C24.2305 25.7851 23.9192 25.8596 23.5627 25.8596C23.0753 25.8596 22.6692 25.7445 22.3443 25.5143C22.0194 25.2842 21.8276 24.9706 21.7689 24.5735H22.3781C22.4458 24.7991 22.5857 24.9796 22.7978 25.115C23.0099 25.2549 23.2648 25.3248 23.5627 25.3248C23.9011 25.3248 24.1764 25.2188 24.3885 25.0067C24.6051 24.7946 24.7134 24.4968 24.7134 24.1132V23.3348C24.5915 23.5514 24.411 23.7319 24.1719 23.8763C23.9327 24.0207 23.6529 24.0929 23.3325 24.0929C23.0031 24.0929 22.703 24.0117 22.4323 23.8492C22.166 23.6868 21.9562 23.4589 21.8028 23.1656C21.6494 22.8723 21.5726 22.5383 21.5726 22.1638C21.5726 21.7847 21.6494 21.4531 21.8028 21.1688C21.9562 20.88 22.166 20.6566 22.4323 20.4987C22.703 20.3407 23.0031 20.2618 23.3325 20.2618ZM24.7134 22.1706C24.7134 21.8908 24.657 21.6471 24.5442 21.4395C24.4313 21.232 24.2779 21.074 24.0839 20.9657C23.8943 20.8529 23.6845 20.7965 23.4544 20.7965C23.2242 20.7965 23.0144 20.8506 22.8249 20.9589C22.6353 21.0672 22.4842 21.2252 22.3714 21.4328C22.2586 21.6403 22.2021 21.884 22.2021 22.1638C22.2021 22.4481 22.2586 22.6963 22.3714 22.9084C22.4842 23.1159 22.6353 23.2761 22.8249 23.3889C23.0144 23.4972 23.2242 23.5514 23.4544 23.5514C23.6845 23.5514 23.8943 23.4972 24.0839 23.3889C24.2779 23.2761 24.4313 23.1159 24.5442 22.9084C24.657 22.6963 24.7134 22.4503 24.7134 22.1706ZM28.2181 20.255C28.4979 20.255 28.7506 20.3159 28.9762 20.4377C29.2019 20.5551 29.3778 20.7333 29.5042 20.9725C29.6351 21.2116 29.7005 21.5027 29.7005 21.8457V24.032H29.0913V21.9337C29.0913 21.5636 28.9988 21.2816 28.8138 21.0876C28.6288 20.889 28.3761 20.7897 28.0557 20.7897C27.7308 20.7897 27.4713 20.8913 27.2773 21.0943C27.0877 21.2974 26.993 21.593 26.993 21.981V24.032H26.377V19.0231H26.993V20.8506C27.1148 20.6611 27.2818 20.5145 27.4939 20.4107C27.7105 20.3069 27.9519 20.255 28.2181 20.255ZM31.458 20.8303V23.0167C31.458 23.1972 31.4964 23.3258 31.5731 23.4025C31.6498 23.4747 31.7829 23.5108 31.9724 23.5108H32.4259V24.032H31.8709C31.5279 24.032 31.2707 23.953 31.0993 23.7951C30.9278 23.6371 30.842 23.3777 30.842 23.0167V20.8303H30.3615V20.3227H30.842V19.3886H31.458V20.3227H32.4259V20.8303H31.458ZM34.4854 24.0929C34.2011 24.0929 33.9462 24.0455 33.7205 23.9508C33.4949 23.8515 33.3167 23.7161 33.1858 23.5446C33.0549 23.3686 32.9827 23.1678 32.9692 22.9422H33.6055C33.6235 23.1272 33.7092 23.2784 33.8627 23.3957C34.0206 23.513 34.2259 23.5717 34.4786 23.5717C34.7133 23.5717 34.8983 23.5198 35.0337 23.416C35.1691 23.3122 35.2367 23.1814 35.2367 23.0234C35.2367 22.861 35.1645 22.7414 35.0201 22.6647C34.8757 22.5835 34.6524 22.5045 34.35 22.4278C34.0748 22.3556 33.8491 22.2834 33.6731 22.2112C33.5017 22.1345 33.3528 22.0239 33.2264 21.8795C33.1046 21.7306 33.0436 21.5366 33.0436 21.2974C33.0436 21.1079 33.1001 20.9341 33.2129 20.7762C33.3257 20.6183 33.4859 20.4942 33.6935 20.4039C33.901 20.3091 34.1379 20.2618 34.4042 20.2618C34.8148 20.2618 35.1465 20.3655 35.3992 20.5731C35.6519 20.7807 35.7873 21.065 35.8053 21.426H35.1894C35.1758 21.232 35.0968 21.0763 34.9524 20.9589C34.8126 20.8416 34.623 20.783 34.3839 20.783C34.1628 20.783 33.9868 20.8303 33.8559 20.9251C33.725 21.0199 33.6596 21.144 33.6596 21.2974C33.6596 21.4192 33.698 21.5208 33.7747 21.602C33.8559 21.6787 33.9552 21.7419 34.0725 21.7915C34.1943 21.8366 34.3613 21.8885 34.5734 21.9472C34.8396 22.0194 35.0562 22.0916 35.2232 22.1638C35.3902 22.2315 35.5323 22.3353 35.6496 22.4752C35.7715 22.615 35.8346 22.7978 35.8392 23.0234C35.8392 23.2265 35.7828 23.4093 35.6699 23.5717C35.5571 23.7342 35.3969 23.8628 35.1894 23.9575C34.9863 24.0478 34.7516 24.0929 34.4854 24.0929Z"
            fill="#00EF5D" />
        <path d="M63.9008 22H38.3008V22.3H63.9008V22Z" fill="#00EF5D" />
        <path d="M63.0004 23.1001H49.4004V23.2001H63.0004V23.1001Z" fill="#00EF5D" />
        <path d="M52.7006 21.1001H39.1006V21.2001H52.7006V21.1001Z" fill="#00EF5D" />
    </g>
    <defs>
        <clipPath id="clip0_45_35">
            <rect width="74" height="26" fill="white" />
        </clipPath>
    </defs>
</svg>
