<svg width="1742" height="263" viewBox="0 0 1742 263" fill="none" xmlns="http://www.w3.org/2000/svg">
<path d="M1598.1 150.472H1692.17C1704.64 150.472 1708.8 146.532 1708.8 139.532C1708.8 132.312 1704.64 128.592 1692.17 128.592H1642.94C1610.12 128.592 1594.37 108.682 1594.37 83.522C1594.37 58.142 1610.12 41.082 1643.81 41.082H1735.7V73.902H1643.81C1631.34 73.902 1627.18 77.622 1627.18 84.842C1627.18 91.842 1631.34 95.782 1643.81 95.782H1693.03C1725.85 95.782 1741.6 115.692 1741.6 140.852C1741.6 166.232 1725.85 183.292 1692.16 183.292H1598.09V150.472H1598.1ZM1555 23.572H1581.25L1576.88 84.832H1559.38L1555 23.572ZM1384.36 41.082H1448.68L1502.5 164.692V41.082H1537.5V183.292H1474.71L1419.36 56.182V183.292H1384.35V41.082H1384.36ZM1327.48 41.082H1362.49V183.292H1327.48V41.082ZM1312.16 73.892H1257.47V183.282H1222.47V73.892H1167.77V41.082H1312.16V73.892ZM1064.95 183.282C1028.2 183.282 1003.69 158.782 1003.69 122.022V102.332C1003.69 65.582 1028.19 41.072 1064.95 41.072H1154.65V73.892H1064.95C1049.2 73.892 1038.7 85.272 1038.7 102.332V122.022C1038.7 139.082 1049.2 150.462 1064.95 150.462H1156.84V183.282H1064.95ZM951.182 41.082H986.192V183.292H951.182V41.082ZM776.172 41.082H872.432C909.182 41.082 933.692 65.582 933.692 102.342V122.032C933.692 158.782 909.192 183.292 872.432 183.292H776.172V41.082ZM872.432 150.472C888.182 150.472 898.682 139.092 898.682 122.032V102.342C898.682 85.282 888.182 73.902 872.432 73.902H811.172V150.472H872.432ZM548.642 41.082H656.502C681.442 41.082 701.792 60.112 701.792 88.772C701.792 114.372 685.822 132.092 665.042 136.022L698.302 183.282H655.642L622.822 136.682H583.662V183.282H548.662V41.082H548.642ZM645.562 103.872C660.002 103.872 666.782 97.962 666.782 88.772C666.782 79.802 660.002 73.892 645.562 73.892H583.652V103.862H645.562V103.872ZM373.622 41.082H469.882C506.632 41.082 531.142 65.582 531.142 102.342V122.032C531.142 158.782 506.642 183.292 469.882 183.292H373.622V41.082ZM469.882 150.472C485.632 150.472 496.132 139.092 496.132 122.032V102.342C496.132 85.282 485.632 73.902 469.882 73.902H408.622V150.472H469.882Z" fill="white"/>
<path d="M1518.6 250.622C1508.72 250.622 1502.14 244.042 1502.14 234.162V228.872C1502.14 218.992 1508.73 212.412 1518.6 212.412H1542.71V221.232H1518.6C1514.37 221.232 1511.54 224.292 1511.54 228.872V234.162C1511.54 238.752 1514.36 241.802 1518.6 241.802H1543.29V250.622H1518.6ZM1488.02 212.412H1497.43V250.632H1488.02V212.412ZM1440.97 212.412H1458.26L1472.72 245.632V212.412H1482.13V250.632H1465.25L1450.37 216.472V250.632H1440.96V212.412H1440.97ZM1425.68 212.412H1435.09V250.632H1425.68V212.412ZM1421.56 250.622H1383.69V212.412H1393.1V241.812H1421.56V250.622ZM1354.28 250.622C1344.4 250.622 1337.82 244.042 1337.82 234.162V228.872C1337.82 218.992 1344.41 212.412 1354.28 212.412H1378.39V221.232H1354.28C1350.05 221.232 1347.22 224.292 1347.22 228.872V234.162C1347.22 238.752 1350.04 241.802 1354.28 241.802H1378.97V250.622H1354.28ZM1292.89 233.102L1274.43 212.402H1286.31L1297.6 225.042L1308.89 212.402H1320.77L1302.31 233.102V250.622H1292.9V233.102H1292.89ZM1247.02 250.622C1237.14 250.622 1230.56 244.042 1230.56 234.162V228.872C1230.56 218.992 1237.15 212.412 1247.02 212.412H1271.13V221.232H1247.02C1242.79 221.232 1239.96 224.292 1239.96 228.872V234.162C1239.96 238.752 1242.78 241.802 1247.02 241.802H1264.07V235.922H1249.37V227.102H1267.6C1271.13 227.102 1273.48 229.452 1273.48 232.982V244.742C1273.48 248.272 1271.13 250.622 1267.6 250.622H1247.02ZM1181.74 228.872C1181.74 218.992 1188.33 212.412 1198.2 212.412H1210.55C1220.43 212.412 1227.01 218.992 1227.01 228.872V234.162C1227.01 244.042 1220.43 250.622 1210.55 250.622H1198.2C1188.32 250.622 1181.74 244.042 1181.74 234.162V228.872ZM1198.2 241.812H1210.55C1214.78 241.812 1217.61 238.752 1217.61 234.172V228.882C1217.61 224.292 1214.79 221.242 1210.55 221.242H1198.2C1193.97 221.242 1191.14 224.302 1191.14 228.882V234.172C1191.15 238.752 1193.97 241.812 1198.2 241.812ZM1178.79 250.622H1140.92V212.412H1150.33V241.812H1178.79V250.622ZM1090.94 228.872C1090.94 218.992 1097.53 212.412 1107.4 212.412H1119.75C1129.63 212.412 1136.21 218.992 1136.21 228.872V234.162C1136.21 244.042 1129.63 250.622 1119.75 250.622H1107.4C1097.52 250.622 1090.94 244.042 1090.94 234.162V228.872ZM1107.4 241.812H1119.75C1123.98 241.812 1126.81 238.752 1126.81 234.172V228.882C1126.81 224.292 1123.99 221.242 1119.75 221.242H1107.4C1103.17 221.242 1100.34 224.302 1100.34 228.882V234.172C1100.35 238.752 1103.17 241.812 1107.4 241.812ZM1089.64 221.232H1074.94V250.632H1065.53V221.232H1050.83V212.412H1089.63V221.232H1089.64ZM1023.19 250.622C1013.31 250.622 1006.73 244.042 1006.73 234.162V228.872C1006.73 218.992 1013.32 212.412 1023.19 212.412H1047.29V221.232H1023.19C1018.96 221.232 1016.13 224.292 1016.13 228.872V234.162C1016.13 238.752 1018.95 241.802 1023.19 241.802H1047.88V250.622H1023.19ZM957.922 228.872C957.922 218.992 964.512 212.412 974.382 212.412H986.732C996.612 212.412 1003.19 218.992 1003.19 228.872V234.162C1003.19 244.042 996.612 250.622 986.732 250.622H974.382C964.502 250.622 957.922 244.042 957.922 234.162V228.872ZM974.382 241.812H986.732C990.962 241.812 993.792 238.752 993.792 234.172V228.882C993.792 224.292 990.972 221.242 986.732 221.242H974.382C970.152 221.242 967.322 224.302 967.322 228.882V234.172C967.322 238.752 970.152 241.812 974.382 241.812ZM913.222 212.412H942.212C948.912 212.412 954.382 217.522 954.382 225.232C954.382 232.112 950.092 236.872 944.502 237.932L953.442 250.632H941.972L933.152 238.112H922.632V250.632H913.222V212.412ZM939.272 229.282C943.152 229.282 944.972 227.692 944.972 225.222C944.972 222.812 943.152 221.222 939.272 221.222H922.632V229.282H939.272ZM867.352 212.412H896.342C903.042 212.412 908.512 217.522 908.512 225.232C908.512 232.992 903.042 238.102 896.342 238.102H876.762V250.622H867.352V212.412ZM893.402 229.282C897.282 229.282 899.102 227.692 899.102 225.222C899.102 222.812 897.282 221.222 893.402 221.222H876.762V229.282H893.402ZM821.242 233.102L802.782 212.402H814.662L825.952 225.042L837.242 212.402H849.122L830.662 233.102V250.622H821.252V233.102H821.242ZM801.592 221.232H786.892V250.632H777.482V221.232H762.782V212.412H801.582V221.232H801.592ZM767.842 250.622H729.982V212.412H739.392V241.812H767.852V250.622H767.842ZM698.802 212.412H711.262L728.192 250.632H717.962L705.022 221.412L692.082 250.632H681.852L698.802 212.412ZM670.692 212.412H680.102V250.632H670.692V212.412ZM641.282 250.622C631.402 250.622 624.822 244.042 624.822 234.162V228.872C624.822 218.992 631.412 212.412 641.282 212.412H665.392V221.232H641.282C637.052 221.232 634.222 224.292 634.222 228.872V234.162C634.222 238.752 637.042 241.802 641.282 241.802H665.972V250.622H641.282ZM621.282 250.622H582.242V212.412H621.282V221.232H591.652V227.112H618.932V235.932H591.652V241.812H621.282V250.622ZM536.372 212.412H565.352C572.052 212.412 577.522 217.522 577.522 225.232C577.522 232.992 572.052 238.102 565.352 238.102H545.772V250.622H536.362V212.412H536.372ZM562.422 229.282C566.302 229.282 568.122 227.692 568.122 225.222C568.122 222.812 566.302 221.222 562.422 221.222H545.782V229.282H562.422ZM493.092 241.812H518.372C521.722 241.812 522.842 240.752 522.842 238.872C522.842 236.932 521.722 235.932 518.372 235.932H505.142C496.322 235.932 492.092 230.582 492.092 223.822C492.092 217.002 496.322 212.412 505.382 212.412H530.072V221.232H505.382C502.032 221.232 500.912 222.232 500.912 224.172C500.912 226.052 502.032 227.112 505.382 227.112H518.612C527.432 227.112 531.662 232.462 531.662 239.222C531.662 246.042 527.432 250.632 518.372 250.632H493.092V241.812Z" fill="white"/>
<path d="M177.532 15.2019H16.3223V110.052H19.4822L42.5123 258.022V261.182H136.222C180.212 261.182 216.002 225.392 216.002 181.402V53.6719C216.002 32.4619 198.752 15.2019 177.532 15.2019Z" fill="white"/>
<path d="M11.9322 188.712C11.9322 188.712 -9.55786 167.792 5.14214 124.252C19.8421 80.712 67.3422 111.812 67.3422 111.812L108.622 132.172C108.622 132.172 120.502 125.952 130.672 131.602C130.672 131.602 131.242 124.822 140.852 126.512C140.852 126.512 139.152 115.772 150.462 105.592C150.462 105.592 140.852 90.892 153.292 77.882C153.292 77.882 134.632 64.312 148.772 41.692C162.912 19.072 193.442 38.302 193.442 38.302C193.442 38.302 209.842 54.132 195.702 73.922C195.702 73.922 215.492 95.972 190.052 111.242C190.052 111.242 204.752 137.252 179.312 149.692C179.312 149.692 184.402 167.782 166.872 175.702C149.342 183.622 140.862 171.182 140.862 171.182C140.862 171.182 139.162 184.752 121.632 184.752C104.102 184.752 101.272 174.572 101.272 174.572C101.272 174.572 89.9622 181.362 74.6922 172.312L55.4622 166.662C55.4622 166.662 58.2921 170.622 54.8921 174.582C54.8921 174.582 81.4722 196.072 53.7622 222.082C53.7622 222.082 61.1121 262.232 41.8921 262.232C22.6821 262.222 9.11218 226.032 11.9322 188.712Z" fill="#5BAC46"/>
<path d="M31.6921 92.6821C50.0421 91.5721 68.2621 102.402 71.5021 104.432L108.972 122.912C113.192 121.472 120.042 119.902 127.272 121.422C127.432 121.282 127.602 121.152 127.772 121.022C129.032 120.052 130.772 119.052 133.062 118.432C134.012 114.252 136.072 109.122 140.372 103.932C138.022 97.1921 137.142 87.7821 142.212 78.7221C135.372 70.0021 130.402 55.1521 141.612 37.2221C141.812 36.9021 142.012 36.5921 142.222 36.2721L142.152 36.1921C134.542 33.4321 126.332 31.9221 117.772 31.9221H32.2121V92.5321L31.6921 92.6821Z" fill="#1E489F"/>
<path d="M189.312 150.502C189.702 159.972 185.372 176.632 170.342 183.422C159.322 188.402 150.262 187.212 143.752 184.102C139.512 189.052 132.512 193.212 121.632 193.212C109.832 193.212 102.322 189.202 97.9222 184.712C91.0922 186.182 81.5822 185.892 71.3422 180.142L69.8422 179.702C72.4222 184.212 74.5722 189.862 74.8122 196.392C75.1822 206.432 71.1322 216.052 62.7422 225.042C63.3822 230.192 64.3222 237.892 63.2722 246.062H117.742C157.372 246.062 189.502 213.932 189.502 174.302V150.492H189.312V150.502Z" fill="#1E489F"/>
<path d="M32.2922 169.342C31.2422 169.342 30.3322 168.552 30.1922 167.482C30.0722 166.522 27.3822 143.652 33.0622 120.912L33.7922 118.002L36.2922 119.672C37.1322 120.232 120.602 175.322 155.702 137.522C182.382 108.792 177.552 89.0919 170.252 59.2819C166.362 43.4019 161.952 25.4019 161.362 2.17191C161.332 1.00191 162.252 0.0319064 163.422 0.00190636C164.602 -0.0480936 165.562 0.891908 165.592 2.06191C166.172 24.8319 170.522 42.6019 174.362 58.2719C181.722 88.3019 187.032 109.992 158.802 140.392C143.152 157.242 116.482 159.542 81.6822 147.022C60.9622 139.572 42.9622 128.862 36.4922 124.812C31.9022 145.842 34.3622 166.752 34.3822 166.972C34.5222 168.132 33.7022 169.182 32.5422 169.322C32.4622 169.332 32.3722 169.342 32.2922 169.342Z" fill="#1E489F"/>
</svg>
