<svg width="1743" height="263" viewBox="0 0 1743 263" fill="none" xmlns="http://www.w3.org/2000/svg">
	<path d="M1598.68 151.16H1692.75C1705.22 151.16 1709.38 147.22 1709.38 140.22C1709.38 133 1705.22 129.28 1692.75 129.28H1643.52C1610.7 129.28 1594.95 109.37 1594.95 84.21C1594.95 58.83 1610.7 41.77 1644.39 41.77H1736.28V74.59H1644.39C1631.92 74.59 1627.76 78.31 1627.76 85.53C1627.76 92.53 1631.92 96.47 1644.39 96.47H1693.61C1726.43 96.47 1742.18 116.38 1742.18 141.54C1742.18 166.92 1726.43 183.98 1692.74 183.98H1598.67V151.16H1598.68ZM1555.58 24.26H1581.83L1577.46 85.52H1559.96L1555.58 24.26ZM1384.94 41.77H1449.26L1503.08 165.38V41.77H1538.08V183.98H1475.29L1419.94 56.87V183.98H1384.93V41.77H1384.94ZM1328.06 41.77H1363.07V183.98H1328.06V41.77ZM1312.74 74.58H1258.05V183.97H1223.05V74.58H1168.35V41.77H1312.74V74.58ZM1065.53 183.97C1028.78 183.97 1004.27 159.47 1004.27 122.71V103.02C1004.27 66.27 1028.77 41.76 1065.53 41.76H1155.23V74.58H1065.53C1049.78 74.58 1039.28 85.96 1039.28 103.02V122.71C1039.28 139.77 1049.78 151.15 1065.53 151.15H1157.42V183.97H1065.53ZM951.76 41.77H986.77V183.98H951.76V41.77ZM776.75 41.77H873.01C909.76 41.77 934.27 66.27 934.27 103.03V122.72C934.27 159.47 909.77 183.98 873.01 183.98H776.75V41.77ZM873.01 151.16C888.76 151.16 899.26 139.78 899.26 122.72V103.03C899.26 85.97 888.76 74.59 873.01 74.59H811.75V151.16H873.01ZM549.22 41.77H657.08C682.02 41.77 702.37 60.8 702.37 89.46C702.37 115.06 686.4 132.78 665.62 136.71L698.88 183.97H656.22L623.4 137.37H584.24V183.97H549.24V41.77H549.22ZM646.14 104.56C660.58 104.56 667.36 98.65 667.36 89.46C667.36 80.49 660.58 74.58 646.14 74.58H584.23V104.55H646.14V104.56ZM374.2 41.77H470.46C507.21 41.77 531.72 66.27 531.72 103.03V122.72C531.72 159.47 507.22 183.98 470.46 183.98H374.2V41.77ZM470.46 151.16C486.21 151.16 496.71 139.78 496.71 122.72V103.03C496.71 85.97 486.21 74.59 470.46 74.59H409.2V151.16H470.46Z" fill="#1E489F" />
	<path d="M1519.18 251.31C1509.3 251.31 1502.72 244.73 1502.72 234.85V229.56C1502.72 219.68 1509.31 213.1 1519.18 213.1H1543.29V221.92H1519.18C1514.95 221.92 1512.12 224.98 1512.12 229.56V234.85C1512.12 239.44 1514.94 242.49 1519.18 242.49H1543.87V251.31H1519.18ZM1488.6 213.1H1498.01V251.32H1488.6V213.1ZM1441.55 213.1H1458.84L1473.3 246.32V213.1H1482.71V251.32H1465.83L1450.95 217.16V251.32H1441.54V213.1H1441.55ZM1426.26 213.1H1435.67V251.32H1426.26V213.1ZM1422.14 251.31H1384.27V213.1H1393.68V242.5H1422.14V251.31ZM1354.86 251.31C1344.98 251.31 1338.4 244.73 1338.4 234.85V229.56C1338.4 219.68 1344.99 213.1 1354.86 213.1H1378.97V221.92H1354.86C1350.63 221.92 1347.8 224.98 1347.8 229.56V234.85C1347.8 239.44 1350.62 242.49 1354.86 242.49H1379.55V251.31H1354.86ZM1293.47 233.79L1275.01 213.09H1286.89L1298.18 225.73L1309.47 213.09H1321.35L1302.89 233.79V251.31H1293.48V233.79H1293.47ZM1247.6 251.31C1237.72 251.31 1231.14 244.73 1231.14 234.85V229.56C1231.14 219.68 1237.73 213.1 1247.6 213.1H1271.71V221.92H1247.6C1243.37 221.92 1240.54 224.98 1240.54 229.56V234.85C1240.54 239.44 1243.36 242.49 1247.6 242.49H1264.65V236.61H1249.95V227.79H1268.18C1271.71 227.79 1274.06 230.14 1274.06 233.67V245.43C1274.06 248.96 1271.71 251.31 1268.18 251.31H1247.6ZM1182.32 229.56C1182.32 219.68 1188.91 213.1 1198.78 213.1H1211.13C1221.01 213.1 1227.59 219.68 1227.59 229.56V234.85C1227.59 244.73 1221.01 251.31 1211.13 251.31H1198.78C1188.9 251.31 1182.32 244.73 1182.32 234.85V229.56ZM1198.78 242.5H1211.13C1215.36 242.5 1218.19 239.44 1218.19 234.86V229.57C1218.19 224.98 1215.37 221.93 1211.13 221.93H1198.78C1194.55 221.93 1191.72 224.99 1191.72 229.57V234.86C1191.73 239.44 1194.55 242.5 1198.78 242.5ZM1179.37 251.31H1141.5V213.1H1150.91V242.5H1179.37V251.31ZM1091.52 229.56C1091.52 219.68 1098.11 213.1 1107.98 213.1H1120.33C1130.21 213.1 1136.79 219.68 1136.79 229.56V234.85C1136.79 244.73 1130.21 251.31 1120.33 251.31H1107.98C1098.1 251.31 1091.52 244.73 1091.52 234.85V229.56ZM1107.98 242.5H1120.33C1124.56 242.5 1127.39 239.44 1127.39 234.86V229.57C1127.39 224.98 1124.57 221.93 1120.33 221.93H1107.98C1103.75 221.93 1100.92 224.99 1100.92 229.57V234.86C1100.93 239.44 1103.75 242.5 1107.98 242.5ZM1090.22 221.92H1075.52V251.32H1066.11V221.92H1051.41V213.1H1090.21V221.92H1090.22ZM1023.77 251.31C1013.89 251.31 1007.31 244.73 1007.31 234.85V229.56C1007.31 219.68 1013.9 213.1 1023.77 213.1H1047.87V221.92H1023.77C1019.54 221.92 1016.71 224.98 1016.71 229.56V234.85C1016.71 239.44 1019.53 242.49 1023.77 242.49H1048.46V251.31H1023.77ZM958.5 229.56C958.5 219.68 965.09 213.1 974.96 213.1H987.31C997.19 213.1 1003.77 219.68 1003.77 229.56V234.85C1003.77 244.73 997.19 251.31 987.31 251.31H974.96C965.08 251.31 958.5 244.73 958.5 234.85V229.56ZM974.96 242.5H987.31C991.54 242.5 994.37 239.44 994.37 234.86V229.57C994.37 224.98 991.55 221.93 987.31 221.93H974.96C970.73 221.93 967.9 224.99 967.9 229.57V234.86C967.9 239.44 970.73 242.5 974.96 242.5ZM913.8 213.1H942.79C949.49 213.1 954.96 218.21 954.96 225.92C954.96 232.8 950.67 237.56 945.08 238.62L954.02 251.32H942.55L933.73 238.8H923.21V251.32H913.8V213.1ZM939.85 229.97C943.73 229.97 945.55 228.38 945.55 225.91C945.55 223.5 943.73 221.91 939.85 221.91H923.21V229.97H939.85ZM867.93 213.1H896.92C903.62 213.1 909.09 218.21 909.09 225.92C909.09 233.68 903.62 238.79 896.92 238.79H877.34V251.31H867.93V213.1ZM893.98 229.97C897.86 229.97 899.68 228.38 899.68 225.91C899.68 223.5 897.86 221.91 893.98 221.91H877.34V229.97H893.98ZM821.82 233.79L803.36 213.09H815.24L826.53 225.73L837.82 213.09H849.7L831.24 233.79V251.31H821.83V233.79H821.82ZM802.17 221.92H787.47V251.32H778.06V221.92H763.36V213.1H802.16V221.92H802.17ZM768.42 251.31H730.56V213.1H739.97V242.5H768.43V251.31H768.42ZM699.38 213.1H711.84L728.77 251.32H718.54L705.6 222.1L692.66 251.32H682.43L699.38 213.1ZM671.27 213.1H680.68V251.32H671.27V213.1ZM641.86 251.31C631.98 251.31 625.4 244.73 625.4 234.85V229.56C625.4 219.68 631.99 213.1 641.86 213.1H665.97V221.92H641.86C637.63 221.92 634.8 224.98 634.8 229.56V234.85C634.8 239.44 637.62 242.49 641.86 242.49H666.55V251.31H641.86ZM621.86 251.31H582.82V213.1H621.86V221.92H592.23V227.8H619.51V236.62H592.23V242.5H621.86V251.31ZM536.95 213.1H565.93C572.63 213.1 578.1 218.21 578.1 225.92C578.1 233.68 572.63 238.79 565.93 238.79H546.35V251.31H536.94V213.1H536.95ZM563 229.97C566.88 229.97 568.7 228.38 568.7 225.91C568.7 223.5 566.88 221.91 563 221.91H546.36V229.97H563ZM493.67 242.5H518.95C522.3 242.5 523.42 241.44 523.42 239.56C523.42 237.62 522.3 236.62 518.95 236.62H505.72C496.9 236.62 492.67 231.27 492.67 224.51C492.67 217.69 496.9 213.1 505.96 213.1H530.65V221.92H505.96C502.61 221.92 501.49 222.92 501.49 224.86C501.49 226.74 502.61 227.8 505.96 227.8H519.19C528.01 227.8 532.24 233.15 532.24 239.91C532.24 246.73 528.01 251.32 518.95 251.32H493.67V242.5Z" fill="#5BAC46" />
	<path d="M178.11 15.8899H16.9V110.74H20.06L43.09 258.71V261.87H136.8C180.79 261.87 216.58 226.08 216.58 182.09V54.3599C216.58 33.1499 199.33 15.8899 178.11 15.8899Z" fill="white" />
	<path d="M12.51 189.4C12.51 189.4 -8.98004 168.48 5.71996 124.94C20.42 81.4 67.92 112.5 67.92 112.5L109.2 132.86C109.2 132.86 121.08 126.64 131.25 132.29C131.25 132.29 131.82 125.51 141.43 127.2C141.43 127.2 139.73 116.46 151.04 106.28C151.04 106.28 141.43 91.58 153.87 78.57C153.87 78.57 135.21 65 149.35 42.38C163.49 19.76 194.02 38.99 194.02 38.99C194.02 38.99 210.42 54.82 196.28 74.61C196.28 74.61 216.07 96.66 190.63 111.93C190.63 111.93 205.33 137.94 179.89 150.38C179.89 150.38 184.98 168.47 167.45 176.39C149.92 184.31 141.44 171.87 141.44 171.87C141.44 171.87 139.74 185.44 122.21 185.44C104.68 185.44 101.85 175.26 101.85 175.26C101.85 175.26 90.54 182.05 75.27 173L56.04 167.35C56.04 167.35 58.87 171.31 55.47 175.27C55.47 175.27 82.05 196.76 54.34 222.77C54.34 222.77 61.69 262.92 42.47 262.92C23.26 262.91 9.69 226.72 12.51 189.4Z" fill="#5BAC46" />
	<path d="M32.27 93.3701C50.62 92.2601 68.84 103.09 72.08 105.12L109.55 123.6C113.77 122.16 120.62 120.59 127.85 122.11C128.01 121.97 128.18 121.84 128.35 121.71C129.61 120.74 131.35 119.74 133.64 119.12C134.59 114.94 136.65 109.81 140.95 104.62C138.6 97.8801 137.72 88.4701 142.79 79.4101C135.95 70.6901 130.98 55.8401 142.19 37.9101C142.39 37.5901 142.59 37.2801 142.8 36.9601L142.73 36.8801C135.12 34.1201 126.91 32.6101 118.35 32.6101H32.79V93.2201L32.27 93.3701Z" fill="#1E489F" />
	<path d="M189.89 151.19C190.28 160.66 185.95 177.32 170.92 184.11C159.9 189.09 150.84 187.9 144.33 184.79C140.09 189.74 133.09 193.9 122.21 193.9C110.41 193.9 102.9 189.89 98.5 185.4C91.67 186.87 82.16 186.58 71.92 180.83L70.42 180.39C73 184.9 75.15 190.55 75.39 197.08C75.76 207.12 71.71 216.74 63.32 225.73C63.96 230.88 64.9 238.58 63.85 246.75H118.32C157.95 246.75 190.08 214.62 190.08 174.99V151.18H189.89V151.19Z" fill="#1E489F" />
	<path d="M32.87 170.03C31.82 170.03 30.91 169.24 30.77 168.17C30.65 167.21 27.96 144.34 33.64 121.6L34.37 118.69L36.87 120.36C37.71 120.92 121.18 176.01 156.28 138.21C182.96 109.48 178.13 89.7799 170.83 59.9699C166.94 44.0899 162.53 26.0899 161.94 2.8599C161.91 1.6899 162.83 0.719895 164 0.689895C165.18 0.639895 166.14 1.5799 166.17 2.7499C166.75 25.5199 171.1 43.2899 174.94 58.9599C182.3 88.9899 187.61 110.68 159.38 141.08C143.73 157.93 117.06 160.23 82.26 147.71C61.54 140.26 43.54 129.55 37.07 125.5C32.48 146.53 34.94 167.44 34.96 167.66C35.1 168.82 34.28 169.87 33.12 170.01C33.04 170.02 32.95 170.03 32.87 170.03Z" fill="#1E489F" />
</svg>
